<?xml version="1.0" standalone="no"?>
<!DOCTYPE svg PUBLIC "-//W3C//DTD SVG 20010904//EN"
 "http://www.w3.org/TR/2001/REC-SVG-20010904/DTD/svg10.dtd">
<svg version="1.0" xmlns="http://www.w3.org/2000/svg"
 width="418.000000pt" height="418.000000pt" viewBox="0 0 418.000000 418.000000"
 preserveAspectRatio="xMidYMid meet">
<metadata>
Created by potrace 1.14, written by Peter Selinger 2001-2017
</metadata>
<g transform="translate(0.000000,418.000000) scale(0.100000,-0.100000)"
fill="#000000" stroke="none">
<path d="M1949 3546 c-2 -2 -31 -6 -64 -9 -60 -5 -195 -27 -195 -31 0 -2 64
-2 143 0 273 5 499 -53 732 -186 374 -213 619 -575 691 -1020 9 -53 12 -356 3
-364 -7 -7 -231 -63 -284 -71 -41 -6 -79 -11 -130 -20 -70 -12 -211 -19 -372
-20 -95 0 -173 -3 -173 -7 0 -5 19 -8 43 -8 23 -1 69 -4 102 -8 85 -10 570 -9
693 2 l103 8 -7 -28 c-94 -392 -379 -751 -739 -931 -215 -108 -416 -153 -661
-148 -66 1 -127 5 -135 10 -10 6 -11 5 -4 -3 20 -22 179 -44 325 -46 130 -2
236 10 359 40 505 125 903 511 1047 1018 18 66 22 84 23 107 1 12 21 22 74 34
39 10 110 31 157 48 549 191 532 535 -34 716 -115 37 -228 62 -220 50 3 -5 10
-9 15 -9 6 0 41 -20 77 -44 220 -143 264 -316 120 -472 -34 -37 -146 -124
-160 -124 -2 0 -3 39 -4 88 -2 236 -46 418 -154 637 -199 402 -594 696 -1035
770 -16 3 -43 7 -60 10 -36 7 -271 16 -276 11z"/>
<path d="M910 3447 c-324 -85 -501 -182 -567 -311 -98 -193 98 -383 507 -490
52 -14 111 -28 130 -31 19 -3 42 -8 50 -10 8 -2 40 -7 70 -11 30 -3 69 -8 85
-10 144 -18 568 -24 740 -11 115 9 210 19 213 22 1 1 -77 2 -175 2 -160 -1
-325 7 -379 17 -11 2 -47 7 -79 11 -33 4 -76 11 -95 15 -19 5 -48 11 -65 14
-117 21 -301 82 -395 133 -330 178 -365 417 -86 600 40 26 81 53 92 59 23 13
3 14 -46 1z"/>
<path d="M630 2103 c-525 -130 -713 -403 -426 -619 179 -135 482 -220 886
-250 71 -5 491 -5 550 0 25 3 86 7 135 11 50 4 95 12 100 17 7 8 6 9 -2 4 -15
-8 -319 -9 -403 -1 -493 45 -821 160 -974 342 -93 111 -87 252 17 361 35 37
149 122 164 122 5 0 18 6 29 14 19 15 19 15 -1 13 -12 0 -45 -7 -75 -14z"/>
<path d="M2268 1823 c7 -3 16 -2 19 1 4 3 -2 6 -13 5 -11 0 -14 -3 -6 -6z"/>
</g>
</svg>
